<svg xmlns="http://www.w3.org/2000/svg" fill="none" viewBox="0 0 254 46">
  <path fill="#000" d="M12.792 34v-.36l.72-.252c.48-.144.792-.36.936-.648.168-.288.252-.672.252-1.152V12.724c0-.48-.084-.864-.252-1.152-.168-.288-.492-.516-.972-.684l-.684-.288v-.36h8.748c3.576 0 6.156.66 7.74 1.98 1.608 1.296 2.412 3.012 2.412 5.148a7.368 7.368 0 0 1-1.008 3.78c-.648 1.128-1.728 2.028-3.24 2.7-1.512.672-3.552 1.008-6.12 1.008H20.1v6.624c0 .936.468 1.548 1.404 1.836l1.08.324V34h-9.792Zm7.308-9.864h1.368c1.176 0 2.136-.192 2.88-.576.744-.384 1.296-1.056 1.656-2.016.36-.96.54-2.292.54-3.996 0-1.728-.204-3.072-.612-4.032-.384-.96-.96-1.62-1.728-1.98-.768-.384-1.728-.576-2.88-.576H20.1v13.176ZM32.796 34v-.36l.756-.252c.48-.168.792-.384.936-.648.144-.288.216-.684.216-1.188V12.724c0-.48-.072-.852-.216-1.116-.12-.288-.408-.516-.864-.684l-.828-.324v-.36h10.296c2.832 0 5.004.54 6.516 1.62 1.512 1.056 2.268 2.532 2.268 4.428 0 1.056-.396 2.112-1.188 3.168-.792 1.056-2.04 1.872-3.744 2.448l5.004 9.936c.216.408.456.744.72 1.008.288.24.66.456 1.116.648l.468.18V34h-6.444L42.48 22.66h-2.448v8.892c0 .456.072.828.216 1.116.144.288.444.504.9.648l.864.324V34h-9.216Zm7.236-12.06h1.728c1.728 0 2.976-.456 3.744-1.368.768-.936 1.152-2.316 1.152-4.14 0-1.848-.36-3.216-1.08-4.104-.72-.912-1.932-1.368-3.636-1.368h-1.908v10.98ZM65.966 34.648c-1.464 0-2.88-.264-4.248-.792a11.103 11.103 0 0 1-3.636-2.34c-1.056-1.056-1.896-2.364-2.52-3.924-.624-1.56-.936-3.384-.936-5.472 0-2.064.312-3.876.936-5.436.624-1.56 1.476-2.856 2.556-3.888a10.832 10.832 0 0 1 3.636-2.376 11.16 11.16 0 0 1 4.212-.828c1.464 0 2.868.264 4.212.792a9.963 9.963 0 0 1 3.636 2.34c1.08 1.032 1.932 2.34 2.556 3.924.624 1.56.936 3.384.936 5.472 0 2.04-.312 3.852-.936 5.436-.624 1.56-1.476 2.868-2.556 3.924a11.092 11.092 0 0 1-3.636 2.376 11.417 11.417 0 0 1-4.212.792Zm0-.756c1.32 0 2.388-.348 3.204-1.044.816-.72 1.404-1.932 1.764-3.636.384-1.728.576-4.092.576-7.092 0-3.024-.192-5.388-.576-7.092-.36-1.728-.948-2.94-1.764-3.636-.816-.72-1.884-1.08-3.204-1.08-1.296 0-2.352.36-3.168 1.08-.816.696-1.416 1.908-1.8 3.636-.36 1.704-.54 4.068-.54 7.092 0 3 .18 5.364.54 7.092.384 1.704.984 2.916 1.8 3.636.816.696 1.872 1.044 3.168 1.044ZM83.077 34v-.36l1.476-.36c.984-.216 1.476-.816 1.476-1.8V10.96h-3.06c-.888 0-1.524.24-1.908.72-.384.456-.792 1.092-1.224 1.908l-1.296 2.52h-.36l.18-5.868h20.772l.144 5.868h-.36l-1.296-2.52c-.408-.816-.804-1.452-1.188-1.908-.384-.48-1.02-.72-1.908-.72h-3.06v20.52c0 .984.492 1.584 1.476 1.8l1.476.36V34h-11.34ZM111.529 34.648c-1.464 0-2.88-.264-4.248-.792a11.103 11.103 0 0 1-3.636-2.34c-1.056-1.056-1.896-2.364-2.52-3.924-.624-1.56-.936-3.384-.936-5.472 0-2.064.312-3.876.936-5.436.624-1.56 1.476-2.856 2.556-3.888a10.832 10.832 0 0 1 3.636-2.376 11.16 11.16 0 0 1 4.212-.828c1.464 0 2.868.264 4.212.792a9.963 9.963 0 0 1 3.636 2.34c1.08 1.032 1.932 2.34 2.556 3.924.624 1.56.936 3.384.936 5.472 0 2.04-.312 3.852-.936 5.436-.624 1.56-1.476 2.868-2.556 3.924a11.092 11.092 0 0 1-3.636 2.376 11.417 11.417 0 0 1-4.212.792Zm0-.756c1.32 0 2.388-.348 3.204-1.044.816-.72 1.404-1.932 1.764-3.636.384-1.728.576-4.092.576-7.092 0-3.024-.192-5.388-.576-7.092-.36-1.728-.948-2.94-1.764-3.636-.816-.72-1.884-1.08-3.204-1.08-1.296 0-2.352.36-3.168 1.08-.816.696-1.416 1.908-1.8 3.636-.36 1.704-.54 4.068-.54 7.092 0 3 .18 5.364.54 7.092.384 1.704.984 2.916 1.8 3.636.816.696 1.872 1.044 3.168 1.044ZM131.203 34.108l-6.372-21.42c-.168-.552-.348-.948-.54-1.188-.192-.264-.528-.504-1.008-.72l-.432-.18v-.36h9.54v.36l-.756.288c-.552.216-.924.48-1.116.792-.192.312-.204.744-.036 1.296l3.924 14.976 4.248-12.564-.828-2.556c-.168-.504-.324-.888-.468-1.152-.144-.264-.384-.48-.72-.648l-.792-.432v-.36h9.036v.36l-1.116.432c-.48.168-.756.42-.828.756-.048.312.012.72.18 1.224l4.572 15.3 4.32-15.012c.168-.576.228-1.08.18-1.512-.048-.432-.348-.744-.9-.936l-.756-.252v-.36h5.004v.36l-.936.36c-.48.168-.816.432-1.008.792-.192.36-.36.804-.504 1.332l-5.976 21.024h-2.484l-5.4-16.92-5.544 16.92h-2.484ZM166.583 34.648c-1.464 0-2.88-.264-4.248-.792a11.103 11.103 0 0 1-3.636-2.34c-1.056-1.056-1.896-2.364-2.52-3.924-.624-1.56-.936-3.384-.936-5.472 0-2.064.312-3.876.936-5.436.624-1.56 1.476-2.856 2.556-3.888a10.832 10.832 0 0 1 3.636-2.376 11.16 11.16 0 0 1 4.212-.828c1.464 0 2.868.264 4.212.792a9.963 9.963 0 0 1 3.636 2.34c1.08 1.032 1.932 2.34 2.556 3.924.624 1.56.936 3.384.936 5.472 0 2.04-.312 3.852-.936 5.436-.624 1.56-1.476 2.868-2.556 3.924a11.092 11.092 0 0 1-3.636 2.376 11.417 11.417 0 0 1-4.212.792Zm0-.756c1.32 0 2.388-.348 3.204-1.044.816-.72 1.404-1.932 1.764-3.636.384-1.728.576-4.092.576-7.092 0-3.024-.192-5.388-.576-7.092-.36-1.728-.948-2.94-1.764-3.636-.816-.72-1.884-1.08-3.204-1.08-1.296 0-2.352.36-3.168 1.08-.816.696-1.416 1.908-1.8 3.636-.36 1.704-.54 4.068-.54 7.092 0 3 .18 5.364.54 7.092.384 1.704.984 2.916 1.8 3.636.816.696 1.872 1.044 3.168 1.044ZM178.835 34v-.36l.756-.252c.48-.168.792-.384.936-.648.144-.288.216-.684.216-1.188V12.724c0-.48-.072-.852-.216-1.116-.12-.288-.408-.516-.864-.684l-.828-.324v-.36h10.296c2.832 0 5.004.54 6.516 1.62 1.512 1.056 2.268 2.532 2.268 4.428 0 1.056-.396 2.112-1.188 3.168-.792 1.056-2.04 1.872-3.744 2.448l5.004 9.936c.216.408.456.744.72 1.008.288.24.66.456 1.116.648l.468.18V34h-6.444l-5.328-11.34h-2.448v8.892c0 .456.072.828.216 1.116.144.288.444.504.9.648l.864.324V34h-9.216Zm7.236-12.06h1.728c1.728 0 2.976-.456 3.744-1.368.768-.936 1.152-2.316 1.152-4.14 0-1.848-.36-3.216-1.08-4.104-.72-.912-1.932-1.368-3.636-1.368h-1.908v10.98ZM201.44 34v-.36l.756-.288c.768-.312 1.152-.924 1.152-1.836V12.724c0-.96-.384-1.572-1.152-1.836l-.756-.288v-.36h9.504c2.544 0 4.728.48 6.552 1.44 1.848.936 3.264 2.292 4.248 4.068 1.008 1.752 1.512 3.864 1.512 6.336 0 2.52-.54 4.668-1.62 6.444-1.08 1.776-2.592 3.132-4.536 4.068-1.92.936-4.188 1.404-6.804 1.404h-8.856Zm7.308-.72h1.548c1.728 0 3.12-.336 4.176-1.008 1.056-.696 1.824-1.848 2.304-3.456.504-1.632.756-3.864.756-6.696s-.252-5.052-.756-6.66c-.48-1.632-1.236-2.784-2.268-3.456-1.032-.696-2.388-1.044-4.068-1.044h-1.692v22.32ZM232.524 34.648c-1.32 0-2.664-.168-4.032-.504-1.368-.312-2.508-.732-3.42-1.26l.18-4.896h.36l1.116 2.34a12.75 12.75 0 0 0 1.08 1.8c.384.504.912.9 1.584 1.188.48.24.936.408 1.368.504.456.072.96.108 1.512.108 1.464 0 2.616-.396 3.456-1.188.864-.792 1.296-1.812 1.296-3.06 0-1.176-.288-2.088-.864-2.736-.576-.672-1.5-1.32-2.772-1.944l-1.476-.648c-2.064-.912-3.684-1.956-4.86-3.132-1.152-1.2-1.728-2.784-1.728-4.752 0-1.416.36-2.64 1.08-3.672.744-1.032 1.764-1.824 3.06-2.376 1.32-.552 2.856-.828 4.608-.828 1.272 0 2.472.168 3.6.504 1.152.336 2.148.792 2.988 1.368l-.216 4.32h-.36l-1.476-2.7c-.408-.84-.816-1.428-1.224-1.764a3.477 3.477 0 0 0-1.404-.756 4.277 4.277 0 0 0-.864-.18 5.803 5.803 0 0 0-1.008-.072c-1.224 0-2.256.36-3.096 1.08-.84.696-1.26 1.644-1.26 2.844 0 1.224.324 2.208.972 2.952.648.72 1.596 1.368 2.844 1.944l1.656.72c2.304 1.008 3.96 2.088 4.968 3.24 1.008 1.128 1.512 2.592 1.512 4.392 0 2.112-.804 3.84-2.412 5.184-1.584 1.32-3.84 1.98-6.768 1.98Z"/>
  <path fill="#000" fill-rule="evenodd" d="M252 2H2v42h250V2ZM0 0v46h254V0H0Z" clip-rule="evenodd"/>
</svg>